Patient4_TMGait_0pt7_02_right_20_GRF.mot
version=1
nRows=45
nColumns=19
inDegrees=no
endheader
time	F1x	F1y	F1z	M1x	M1y	M1z	F2x	F2y	F2z	M2x	M2y	M2z	EC1x	EC1y	EC1z	EC2x	EC2y	EC2z
22.09	-33.6076	725.3097	81.8621	-232.4232	-92.63	781.9018	7.9765	-10.0367	-21.9641	3.555	13.276	-9.6164	-0.0592	0.0182	-0.0073	-0.0462	0.0165	0.9585
22.1016	-23.7722	724.3327	78.6119	-232.9415	-87.3603	780.4648	5.125	-5.9482	-14.7881	2.7303	9.0352	-5.3198	-0.0592	0.0182	-0.0073	-0.0462	0.0165	0.9585
22.1133	-15.0436	724.6699	75.5794	-233.8279	-82.3391	779.4014	2.7736	-2.4216	-8.7467	2.0526	5.482	-1.6423	-0.0592	0.0182	-0.0073	-0.0462	0.0165	0.9585
22.1249	-7.8312	726.3869	72.9095	-235.085	-77.7832	778.7733	1.016	0.3329	-4.1633	1.56	2.7968	1.2222	-0.0592	0.0182	-0.0073	-0.0462	0.0165	0.9585
22.1366	-2.1387	729.2553	70.6921	-236.6399	-73.8013	778.4975	-0.18434	2.3035	-1.0114	1.2446	0.95824	3.265	-0.0592	0.0182	-0.0073	-0.0462	0.0165	0.9585
22.1482	2.278	732.829	68.903	-238.3598	-70.353	778.2713	-0.92593	3.5992	0.92754	1.0773	-0.16282	4.5934	-0.0592	0.0182	-0.0073	-0.0462	0.0165	0.9585
22.1599	5.7656	736.5282	67.5085	-240.0683	-67.3671	777.6661	-1.3446	4.359	1.94	1.0137	-0.72609	5.3475	-0.0592	0.0182	-0.0073	-0.0462	0.0165	0.9585
22.1715	8.7123	739.8269	66.4602	-241.6057	-64.7444	776.2584	-1.5549	4.6896	2.3199	0.99964	-0.90533	5.639	-0.0592	0.0182	-0.0073	-0.0462	0.0165	0.9585
22.1831	11.4403	742.3701	65.7108	-242.8647	-62.3973	773.7627	-1.6481	4.6567	2.3023	0.97856	-0.8392	5.5434	-0.0592	0.0182	-0.0073	-0.0462	0.0165	0.9585
22.1948	14.2011	744.0588	65.2397	-243.8152	-60.2719	770.1585	-1.6851	4.2681	2.0812	0.89249	-0.65096	5.0512	-0.0592	0.0182	-0.0073	-0.0462	0.0165	0.9585
22.2064	17.1434	745.0358	65.0317	-244.4977	-58.3404	765.6811	-1.7123	3.4821	1.7757	0.68099	-0.41364	4.0978	-0.0592	0.0182	-0.0073	-0.0462	0.0165	0.9585
22.2181	20.2824	745.62	65.1285	-245.0032	-56.6574	760.7438	-1.7213	2.2243	1.4767	0.28848	-0.19988	2.5716	-0.0592	0.0182	-0.0073	-0.0462	0.0165	0.9585
22.2297	23.5894	746.2251	65.5585	-245.4474	-55.2766	755.8533	-1.7079	0.41018	1.2212	-0.33201	-0.044364	0.35764	-0.0592	0.0182	-0.0073	-0.0462	0.0165	0.9585
22.2414	26.9572	747.2094	66.3779	-245.9279	-54.2897	751.4593	-1.6079	-1.9962	1.0397	-1.1995	0.0030895	-2.6074	-0.0592	0.0182	-0.0073	-0.0462	0.0165	0.9585
22.253	30.2852	748.7665	67.579	-246.4926	-53.7273	747.8153	-1.3415	-4.9218	0.9473	-2.2856	-0.10412	-6.2288	-0.0592	0.0182	-0.0073	-0.0462	0.0165	0.9585
22.2646	33.4865	750.8066	69.1361	-247.1038	-53.5886	744.8785	-0.78565	-8.1092	0.95757	-3.4837	-0.42769	-10.1884	-0.0592	0.0182	-0.0073	-0.0462	0.0165	0.9585
22.2763	36.5302	752.8956	70.9269	-247.629	-53.7649	742.2258	0.19194	-10.9654	1.0855	-4.5606	-1.0355	-13.7481	-0.0592	0.0182	-0.0073	-0.0462	0.0165	0.9585
22.2879	39.4014	754.3916	72.8156	-247.8768	-54.1264	739.2276	1.7322	-12.4979	1.3368	-5.1247	-1.9895	-15.6816	-0.0592	0.0182	-0.0073	-0.0462	0.0165	0.9585
22.2996	42.1294	754.5846	74.6108	-247.6384	-54.4846	735.1839	3.9206	-11.1605	1.7168	-4.5754	-3.3202	-14.0713	-0.0592	0.0182	-0.0073	-0.0462	0.0165	0.9585
22.3112	44.7046	752.8088	76.179	-246.7183	-54.7106	729.4504	6.7539	-4.852	2.1946	-2.096	-4.9811	-6.3157	-0.0592	0.0182	-0.0073	-0.0462	0.0165	0.9585
22.3229	47.1688	748.47	77.3824	-244.9446	-54.6656	721.4561	10.031	9.055	2.7236	3.3291	-6.8254	10.851	-0.0592	0.0182	-0.0073	-0.0462	0.0165	0.9585
22.3345	49.5336	740.9066	78.1238	-242.1225	-54.2549	710.5885	13.2916	33.4369	3.1836	12.8106	-8.5121	40.9957	-0.0592	0.0182	-0.0073	-0.0462	0.0165	0.9585
22.3461	51.8228	729.3	78.2504	-238.0118	-53.3402	696.0813	15.6493	70.8993	3.4019	27.3499	-9.4644	87.3643	-0.0592	0.0182	-0.0073	-0.0462	0.0165	0.9585
22.3578	53.977	712.5847	77.5478	-232.2958	-51.7518	676.9822	15.7318	122.8273	3.1073	47.4746	-8.8004	151.6957	-0.0592	0.0182	-0.0073	-0.0462	0.0165	0.9585
22.3694	55.8617	689.4642	75.7285	-224.5844	-49.2901	652.1388	11.6787	188.2124	1.9471	72.7779	-5.3891	232.7698	-0.0592	0.0182	-0.0073	-0.0462	0.0165	0.9585
22.3811	57.1734	658.5635	72.4918	-214.457	-45.795	620.3727	2.0934	262.5758	-0.36919	101.4997	1.6506	325.0393	-0.0592	0.0182	-0.0073	-0.0462	0.0165	0.9585
22.3927	57.536	618.744	67.632	-201.557	-41.2222	580.7323	-12.265	337.883	-4.4238	130.4818	12.6609	418.4892	-0.0592	0.0182	-0.0073	-0.0462	0.0165	0.9585
22.4044	56.5237	569.5923	61.1805	-185.7428	-35.7521	532.9141	-28.2768	405.9204	-10.9596	156.4927	27.1532	502.6554	-0.0592	0.0182	-0.0073	-0.0462	0.0165	0.9585
22.416	53.8184	511.8344	53.4883	-167.2067	-29.806	477.6289	-43.3014	463.1948	-19.1845	178.1589	43.1201	572.8368	-0.0592	0.0182	-0.0073	-0.0462	0.0165	0.9585
22.4276	49.3125	447.3193	45.1941	-146.479	-23.9712	416.5876	-55.602	510.9042	-28.453	195.9448	59.1154	630.2152	-0.0592	0.0182	-0.0073	-0.0462	0.0165	0.9585
22.4393	43.1715	378.6991	37.0151	-124.3525	-18.8035	352.1917	-64.3915	552.2074	-37.7209	211.116	73.6056	678.6664	-0.0592	0.0182	-0.0073	-0.0462	0.0165	0.9585
22.4509	35.6943	309.188	29.4581	-101.8286	-14.6274	287.3435	-69.4917	589.6714	-46.0412	224.7323	85.4543	721.4264	-0.0592	0.0182	-0.0073	-0.0462	0.0165	0.9585
22.4626	27.3617	242.2026	22.8323	-80.0044	-11.5425	225.1113	-71.4077	624.4421	-53.0719	237.2761	94.4149	760.1016	-0.0592	0.0182	-0.0073	-0.0462	0.0165	0.9585
22.4742	18.8682	180.9928	17.2299	-59.9535	-9.397	168.4093	-70.7218	656.7054	-58.5517	248.841	100.4851	795.0343	-0.0592	0.0182	-0.0073	-0.0462	0.0165	0.9585
22.4859	11.0671	128.08	12.6605	-42.5337	-7.9143	119.4585	-68.2414	686.2798	-63.0471	259.3206	104.592	826.2478	-0.0592	0.0182	-0.0073	-0.0462	0.0165	0.9585
22.4975	4.7	84.771	9.0144	-28.2185	-6.7561	79.3926	-64.598	712.6596	-66.6968	268.5055	107.2272	853.2671	-0.0592	0.0182	-0.0073	-0.0462	0.0165	0.9585
22.5091	0.13362	51.2516	6.1197	-17.1105	-5.6478	48.334	-60.5586	735.1301	-70.0395	276.0937	109.254	875.4982	-0.0592	0.0182	-0.0073	-0.0462	0.0165	0.9585
22.5208	-2.6073	26.8928	3.8328	-9.0281	-4.4637	25.7082	-56.6358	753.0507	-72.9802	281.8655	110.8128	892.3058	-0.0592	0.0182	-0.0073	-0.0462	0.0165	0.9585
22.5324	-3.7712	10.5077	2.0855	-3.5902	-3.2369	10.4441	-53.2207	766.2597	-75.6335	285.7738	112.1499	903.6452	-0.0592	0.0182	-0.0073	-0.0462	0.0165	0.9585
22.5441	-3.8383	0.63579	0.85559	-0.31099	-2.1213	1.2117	-50.3318	774.88	-77.6616	287.9271	112.9334	909.6742	-0.0592	0.0182	-0.0073	-0.0462	0.0165	0.9585
22.5557	-3.324	-4.3468	0.083232	1.3494	-1.2311	-3.4544	-47.9338	779.3417	-78.964	288.5242	113.0252	910.9544	-0.0592	0.0182	-0.0073	-0.0462	0.0165	0.9585
22.5674	-2.5491	-6.0002	-0.33262	1.9078	-0.5864	-5.0063	-45.8209	780.1506	-79.4472	287.7963	112.2666	908.0455	-0.0592	0.0182	-0.0073	-0.0462	0.0165	0.9585
22.579	-1.7553	-5.622	-0.50558	1.7943	-0.16094	-4.6395	-43.8999	777.9379	-79.2134	285.9936	110.7381	901.7057	-0.0592	0.0182	-0.0073	-0.0462	0.0165	0.9585
22.5906	-1.0348	-4.1986	-0.52415	1.3334	0.088569	-3.3009	-42.0072	773.3704	-78.4389	283.3784	108.591	892.6743	-0.0592	0.0182	-0.0073	-0.0462	0.0165	0.9585
22.6023	-0.48057	-2.4003	-0.45589	0.74767	0.19918	-1.5993	-40.1523	767.1984	-77.2779	280.2322	106.0104	881.8217	-0.0592	0.0182	-0.0073	-0.0462	0.0165	0.9585
